<?xml version="1.0" encoding="utf-8"?>
<!-- Generator: Adobe Illustrator 26.3.1, SVG Export Plug-In . SVG Version: 6.00 Build 0)  -->
<svg version="1.1" id="Capa_1" xmlns="http://www.w3.org/2000/svg" xmlns:xlink="http://www.w3.org/1999/xlink" x="0px" y="0px"
	 viewBox="0 0 612 180" style="enable-background:new 0 0 612 180;" xml:space="preserve">
<style type="text/css">
	.st0{fill:#332D69;}
	.st1{fill:#D5532A;}
</style>
<g>
	<path class="st0" d="M122.5,65.9c-2.9-2.9-6.9-5.2-12.6-6.3c-2.7-0.6-5.9-0.9-9.4-0.9H82.6c-18.7-0.2-37.3,0.1-56,0
		c-1.6,0-3.2,0-4.9,0c-0.9,0-1.8-0.2-1.6,1.4C21,67,30.4,75.4,37.3,75.4c12.9,0,25.8,0,38.7,0l-0.8,3H14.4c1.3,2.5,2.3,4.5,3.4,6.3
		c3.9,7,9.3,10.6,17.9,10.4c11.7-0.3,23.4-0.3,35.1-0.3L70,98H47.4c0.9,3.2,2.3,5.5,3.7,7.7c3.4,5.6,7.9,8.6,14.4,9.1
		c0.8,0.1,1.5,0.1,2.3,0.1c9.2-0.2,18.3-0.2,27.5-0.2c10.3-0.9,18.3-4.4,24-10.1c6-6,9.2-13.7,9.2-22.2
		C128.6,75.6,126.6,70.1,122.5,65.9 M105.4,93.9c-0.4,0.4-0.8,0.7-1.2,1.1c-1.9,1.4-4.4,2.5-7.2,3c-1.6,0.3-3.3,0.5-5.1,0.5h-3.3
		l0.1-0.5l0.8-3L94,78.5l0.8-3l0.1-0.4h3.1c1.6,0,2.9,0.1,4.1,0.4c2.2,0.4,3.8,1.3,5,2.4c0.2,0.2,0.4,0.4,0.5,0.6
		c1.1,1.4,1.8,3.3,1.8,5.9C109.5,87.8,107.8,91.6,105.4,93.9"/>
	<path class="st0" d="M157.8,58.3h18.6l8.5,56.6h-20l-1-7.5h-19.7l-4.9,7.5h-20.5L157.8,58.3z M162.9,94l-1.5-13.6L152.6,94H162.9z"
		/>
	<path class="st0" d="M187.4,91.1c0-18.4,14.4-33.6,37.1-33.6c10.6,0,19.7,4.6,23.5,9.3l-11.7,12c-3.2-3-8-5.1-13-5.1
		c-10.7,0-17,7.3-17,16.4c0,7,5.1,10.4,10.9,10.4c2,0,3.6-0.3,4.9-0.9l1.8-6h-9.2l3.1-12h27.1l-8,28.7c-5.5,3.3-13.5,5.8-21.6,5.8
		C201.2,116.1,187.4,108.7,187.4,91.1"/>
	<path class="st1" d="M258.5,58.7h18.4c9.2,0,15.2,1.8,19.3,5.9c3,3,4.4,6.8,4.4,11.5c0,14-11.3,22.6-27.9,22.6h-9.2l-4.3,16.1
		h-15.7L258.5,58.7z M272.5,86.6c7.7,0,12.1-3.5,12.1-8.7c0-1.5-0.6-2.9-1.6-3.9c-1.5-1.5-3.8-2.2-6.7-2.2h-5.8l-3.9,14.9H272.5z"/>
	<path class="st1" d="M327.1,58.3h15.3l8.8,56.6h-16.4l-1.4-10h-21.7l-6.7,10H288L327.1,58.3z M332,92.7l-2-16.1l-10.5,16.1H332z"/>
	<path class="st1" d="M355.8,91.5c0-16.6,13.5-33.9,35.1-33.9c11.5,0,19.4,5.5,22.8,14.2L400.2,79c-2.2-4.6-5.8-7.2-11.3-7.2
		c-9.3,0-16.8,8.7-16.8,18.5c0,7.1,4.7,11.6,11.2,11.6c4.9,0,8.4-2.1,12-5.7l10.5,9.3c-5.5,6.2-12.8,10.5-23.5,10.5
		C366.8,116,355.8,106.5,355.8,91.5"/>
	<polygon class="st1" points="424.2,58.7 439.8,58.7 433.7,81.2 456.9,58.7 476.8,58.7 450.3,83.3 462.8,114.9 445.9,114.9 
		437.8,93.2 428.1,102.1 424.7,114.9 409.1,114.9 	"/>
	<polygon class="st1" points="482.1,58.7 527.2,58.7 523.5,71.9 494,71.9 491.7,80.5 518.5,80.5 515.2,92.7 488.4,92.7 486,101.7 
		516,101.7 512.5,114.9 467,114.9 	"/>
	<polygon class="st1" points="545.3,72.4 528.4,72.4 532.1,58.7 581.3,58.7 577.7,72.4 560.9,72.4 549.5,114.9 533.8,114.9 	"/>
	<path class="st1" d="M561.3,115.8c-3,0-5.4-2.4-5.4-5.4c0-3,2.4-5.4,5.4-5.4s5.4,2.4,5.4,5.4C566.6,113.4,564.2,115.8,561.3,115.8
		 M561.3,106.1c-2.4,0-4.4,2-4.4,4.4c0,2.4,2,4.4,4.4,4.4c2.4,0,4.4-2,4.4-4.4C565.6,108,563.7,106.1,561.3,106.1"/>
	<path class="st1" d="M559.2,113v-5.1h2.2c0.5,0,0.9,0,1.2,0.1c0.2,0.1,0.4,0.3,0.6,0.5c0.1,0.2,0.2,0.5,0.2,0.8
		c0,0.4-0.1,0.7-0.3,1c-0.2,0.3-0.6,0.4-1,0.5c0.2,0.1,0.4,0.3,0.6,0.4c0.1,0.2,0.3,0.4,0.6,0.8l0.6,1h-1.2l-0.7-1.1
		c-0.3-0.4-0.4-0.6-0.5-0.8c-0.1-0.1-0.2-0.2-0.3-0.2c-0.1,0-0.3-0.1-0.5-0.1h-0.2v2.1H559.2z M560.2,110.1h0.8c0.5,0,0.8,0,0.9-0.1
		c0.1,0,0.2-0.1,0.3-0.2c0.1-0.1,0.1-0.2,0.1-0.4c0-0.2,0-0.3-0.1-0.4c-0.1-0.1-0.2-0.2-0.4-0.2c-0.1,0-0.3,0-0.8,0h-0.8V110.1z"/>
	<g>
		<path class="st0" d="M294.1,142.1H291l2.6-12.4h-4.4l0.5-2.5h11.7l-0.5,2.5h-4.3L294.1,142.1z"/>
		<path class="st0" d="M303.4,127.3h3l-1.7,8.1l-0.4,2c0,0.2,0,0.3,0,0.5c0,0.6,0.2,1.1,0.6,1.5c0.4,0.4,1.1,0.6,1.9,0.6
			c0.7,0,1.3-0.1,1.8-0.4c0.5-0.3,0.9-0.7,1.1-1.2c0.3-0.5,0.5-1.5,0.8-2.8l1.7-8.1h3l-1.7,8.1c-0.4,1.7-0.8,3-1.2,3.9
			c-0.5,0.9-1.2,1.6-2.1,2.2c-0.9,0.6-2.1,0.9-3.6,0.9c-1.7,0-3.1-0.4-4-1.3c-0.9-0.8-1.4-1.9-1.4-3.3c0-0.3,0-0.6,0.1-0.9
			c0-0.2,0.1-0.8,0.4-1.8L303.4,127.3z"/>
		<path class="st0" d="M329.9,138.9h-5.9l-1.8,3.3h-3.1l8.4-14.8h3.4l2.4,14.8h-2.9L329.9,138.9z M329.6,136.4l-0.9-6l-3.6,6H329.6z
			"/>
		<path class="st0" d="M335.3,142.1l3.1-14.8h3l-2.6,12.4h7.5l-0.5,2.5H335.3z"/>
		<path class="st0" d="M347.7,142.1l3.1-14.8h3l-3.1,14.8H347.7z"/>
		<path class="st0" d="M363.3,138.9h-5.9l-1.8,3.3h-3.1l8.4-14.8h3.4l2.4,14.8h-2.9L363.3,138.9z M363,136.4l-0.9-6l-3.6,6H363z"/>
		<path class="st0" d="M368.6,142.1l3.1-14.8h4c1.1,0,1.8,0,2.1,0.1c0.6,0.1,1.2,0.2,1.6,0.4c0.5,0.2,0.9,0.5,1.3,0.8
			c0.4,0.3,0.7,0.8,1,1.2c0.3,0.5,0.5,1,0.7,1.7c0.2,0.6,0.2,1.3,0.2,2c0,1.6-0.3,3-0.9,4.3c-0.6,1.2-1.4,2.2-2.3,3
			c-0.7,0.6-1.6,1-2.7,1.3c-0.6,0.1-1.6,0.2-2.9,0.2H368.6z M372.2,139.7h1.5c1.1,0,1.9-0.1,2.4-0.2c0.5-0.1,1-0.4,1.4-0.8
			c0.6-0.5,1.1-1.3,1.5-2.2c0.4-0.9,0.6-2,0.6-3.2c0-1.1-0.2-1.8-0.5-2.4c-0.3-0.5-0.8-0.9-1.3-1.1c-0.4-0.1-1-0.2-1.9-0.2h-1.8
			L372.2,139.7z"/>
		<path class="st0" d="M384.5,136.3c0-0.9,0.1-1.8,0.4-2.8c0.3-1.3,0.9-2.4,1.6-3.4c0.7-1,1.6-1.7,2.7-2.3c1.1-0.6,2.3-0.8,3.7-0.8
			c1.8,0,3.3,0.6,4.4,1.7c1.1,1.1,1.7,2.7,1.7,4.5c0,1.6-0.4,3.1-1.1,4.5c-0.7,1.5-1.7,2.6-3,3.4c-1.3,0.8-2.7,1.2-4.3,1.2
			c-1.4,0-2.5-0.3-3.5-0.9c-0.9-0.6-1.6-1.4-2-2.3C384.7,138.2,384.5,137.3,384.5,136.3z M387.5,136.3c0,1,0.3,1.9,0.9,2.6
			c0.6,0.7,1.4,1,2.4,1c0.8,0,1.6-0.3,2.4-0.8c0.8-0.5,1.4-1.4,1.9-2.5c0.5-1.1,0.7-2.2,0.7-3.2c0-1.2-0.3-2.1-0.9-2.7
			c-0.6-0.7-1.4-1-2.4-1c-1.5,0-2.7,0.7-3.6,2.1C388,133.1,387.5,134.6,387.5,136.3z"/>
		<path class="st0" d="M405.4,142.1l3.1-14.8h11l-0.5,2.5h-7.9l-0.7,3.4h7.7l-0.5,2.5h-7.7l-0.9,4h8.6l-0.5,2.5H405.4z"/>
		<path class="st0" d="M431.1,142.1h-2.8l-4-10l-2.1,10h-2.8l3.1-14.8h2.9l4,9.9l2.1-9.9h2.8L431.1,142.1z"/>
		<path class="st0" d="M440.1,142.1l3.1-14.8h3l-2.6,12.4h7.5l-0.5,2.5H440.1z"/>
		<path class="st0" d="M453.6,136.3c0-0.9,0.1-1.8,0.4-2.8c0.3-1.3,0.9-2.4,1.6-3.4c0.7-1,1.6-1.7,2.7-2.3c1.1-0.6,2.3-0.8,3.7-0.8
			c1.8,0,3.3,0.6,4.4,1.7c1.1,1.1,1.7,2.7,1.7,4.5c0,1.6-0.4,3.1-1.1,4.5c-0.7,1.5-1.7,2.6-3,3.4c-1.3,0.8-2.7,1.2-4.3,1.2
			c-1.4,0-2.5-0.3-3.5-0.9c-0.9-0.6-1.6-1.4-2-2.3C453.8,138.2,453.6,137.3,453.6,136.3z M456.6,136.3c0,1,0.3,1.9,0.9,2.6
			c0.6,0.7,1.4,1,2.4,1c0.8,0,1.6-0.3,2.4-0.8c0.8-0.5,1.4-1.4,1.9-2.5c0.5-1.1,0.7-2.2,0.7-3.2c0-1.2-0.3-2.1-0.9-2.7
			c-0.6-0.7-1.4-1-2.4-1c-1.5,0-2.7,0.7-3.6,2.1C457.1,133.1,456.6,134.6,456.6,136.3z"/>
		<path class="st0" d="M477,134.2h6.6l-1.3,6.4c-0.8,0.5-1.7,0.9-2.9,1.3c-1.1,0.4-2.3,0.5-3.5,0.5c-1.8,0-3.2-0.4-4.2-1.2
			c-1.3-1.1-2-2.8-2-4.9c0-1.4,0.3-2.8,0.9-4.1c0.7-1.6,1.7-2.8,2.9-3.7c1.3-0.9,2.8-1.3,4.5-1.3c1.7,0,3.1,0.4,4.1,1.2
			c1,0.8,1.7,2,2.1,3.5l-2.8,0.3c-0.2-0.8-0.7-1.5-1.2-1.9c-0.6-0.4-1.3-0.6-2.1-0.6c-1,0-1.9,0.3-2.7,0.8c-0.8,0.5-1.5,1.3-1.9,2.4
			c-0.5,1.1-0.7,2.2-0.7,3.5c0,1.2,0.3,2.2,0.9,2.8s1.4,0.9,2.5,0.9c0.7,0,1.3-0.1,2-0.3c0.7-0.2,1.3-0.4,1.8-0.7l0.5-2.2h-3.8
			L477,134.2z"/>
		<path class="st0" d="M484.8,142.1l3.1-14.8h3l-3.1,14.8H484.8z M490.3,123.4h3.1l-3.3,3h-1.9L490.3,123.4z"/>
		<path class="st0" d="M491.1,137.3l2.9-0.2c0,0.9,0.2,1.5,0.5,1.9c0.4,0.5,1.3,0.8,2.5,0.8c1,0,1.7-0.2,2.2-0.5
			c0.4-0.4,0.7-0.8,0.7-1.3c0-0.4-0.2-0.8-0.5-1.1c-0.3-0.2-1-0.6-2.1-1.1c-1.2-0.5-2-0.9-2.5-1.2c-0.5-0.3-0.9-0.8-1.2-1.3
			c-0.3-0.5-0.5-1.2-0.5-1.9c0-1.2,0.5-2.3,1.4-3.1c0.9-0.8,2.2-1.2,3.9-1.2c1.7,0,3.1,0.4,4,1.2c1,0.8,1.5,1.9,1.6,3.3l-2.9,0.1
			c-0.1-0.7-0.3-1.3-0.8-1.6c-0.4-0.4-1.1-0.6-1.9-0.6c-0.8,0-1.4,0.1-1.8,0.4c-0.4,0.3-0.5,0.7-0.5,1.1c0,0.4,0.2,0.8,0.5,1.1
			c0.3,0.3,1.1,0.7,2.2,1.2c1.7,0.7,2.8,1.3,3.3,1.8c0.7,0.7,1,1.5,1,2.6c0,1.3-0.5,2.4-1.6,3.4c-1,0.9-2.5,1.4-4.3,1.4
			c-1.3,0-2.4-0.2-3.3-0.6c-0.9-0.4-1.6-1-2-1.8C491.3,139.2,491.1,138.3,491.1,137.3z"/>
		<path class="st0" d="M510.9,142.1h-3.1l2.6-12.4h-4.4l0.5-2.5h11.7l-0.5,2.5h-4.3L510.9,142.1z"/>
		<path class="st0" d="M517,142.1l3.1-14.8h3l-3.1,14.8H517z"/>
		<path class="st0" d="M533.6,136.8l3.1,0.5c-0.6,1.7-1.5,2.9-2.7,3.8c-1.2,0.9-2.6,1.3-4.2,1.3c-1.8,0-3.2-0.5-4.3-1.6
			c-1-1.1-1.5-2.7-1.5-4.8c0-1.7,0.3-3.2,1-4.6c0.7-1.4,1.6-2.5,2.8-3.2c1.2-0.7,2.5-1.1,4-1.1c1.6,0,2.9,0.4,3.9,1.3
			c1,0.9,1.6,2,1.8,3.5l-2.9,0.3c-0.2-0.9-0.5-1.5-0.9-1.9c-0.5-0.4-1.1-0.6-1.8-0.6c-0.8,0-1.6,0.3-2.4,0.8
			c-0.7,0.5-1.3,1.3-1.8,2.4c-0.4,1.1-0.7,2.2-0.7,3.3c0,1.2,0.3,2.1,0.9,2.8c0.6,0.6,1.3,1,2.1,1c0.8,0,1.5-0.3,2.2-0.8
			C532.8,138.6,533.3,137.8,533.6,136.8z"/>
		<path class="st0" d="M547.6,138.9h-5.9l-1.8,3.3h-3.1l8.4-14.8h3.4l2.4,14.8h-2.9L547.6,138.9z M547.2,136.4l-0.9-6l-3.6,6H547.2z
			"/>
	</g>
</g>
</svg>
